<?xml version="1.0" encoding="UTF-8"?>
<svg width="18px" height="16px" viewBox="0 0 18 16" version="1.1" xmlns="http://www.w3.org/2000/svg" xmlns:xlink="http://www.w3.org/1999/xlink">
    <!-- Generator: Sketch 53.2 (72643) - https://sketchapp.com -->
    <title>zoom</title>
    <desc>Created with Sketch.</desc>
    <g id="Page-1" stroke="none" stroke-width="1" fill="none" fill-rule="evenodd">
        <g id="Detalle---v2" transform="translate(-279.000000, -34.000000)" fill="#000" fill-rule="nonzero">
            <g id="zoom" transform="translate(279.000000, 34.000000)">
                <path d="M16.9419142,15.1819573 L16.4398798,15.647311 C15.9360961,16.117563 15.1191969,16.117563 14.6154133,15.647311 L11.4580192,12.7049699 C10.324506,13.3662619 8.98458139,13.7499745 7.54844813,13.7499745 C3.47794618,13.7499745 0.177113703,10.6721094 0.177113703,6.87580365 C0.177113703,3.07949791 3.47794618,0 7.55019738,0 C11.6224486,0 14.9232811,3.07949791 14.9232811,6.87580365 C14.9232811,8.22124707 14.5069598,9.48015104 13.7897678,10.539851 L16.9436634,13.4805592 C17.4456978,13.9491785 17.4456978,14.7117053 16.9419142,15.1819573 Z M7.55019738,1.90223492 C4.60621165,1.90223492 2.21848705,4.12776814 2.21848705,6.87580365 C2.21848705,9.62057353 4.60621165,11.8477396 7.55019738,11.8477396 C10.4959324,11.8477396 12.8819077,9.62057353 12.8819077,6.87580365 C12.8819077,4.12940096 10.4941831,1.90223492 7.55019738,1.90223492 Z"></path>
            </g>
        </g>
    </g>
</svg>